<svg width="92" height="34" viewBox="0 0 92 34" fill="none" xmlns="http://www.w3.org/2000/svg">
<path d="M19.913 5.76925C19.1261 4.83951 18.0293 4.37113 16.6226 4.3641C15.0754 4.35942 13.7783 4.93944 12.7315 6.10415C11.6847 7.26886 11.1585 8.72631 11.1531 10.4765C11.1476 12.2251 11.6652 13.6841 12.7057 14.8535C13.7463 16.0229 15.0399 16.6108 16.5863 16.617C17.9915 16.617 19.091 16.156 19.8849 15.2341V16.302L23.7362 16.3126L23.7701 4.71305L19.9153 4.70368L19.913 5.76925ZM19.221 12.3266C18.7705 12.7895 18.1819 13.0198 17.4552 13.0175C16.7284 13.0151 16.1429 12.7809 15.6987 12.3149C15.2514 11.8465 15.0289 11.2353 15.0313 10.4812C15.0336 9.72709 15.2596 9.11663 15.7093 8.64981C16.1589 8.18689 16.7475 7.9566 17.4751 7.95894C18.2026 7.96128 18.7881 8.19548 19.2315 8.66152C19.6788 9.1299 19.9013 9.74153 19.8989 10.4964C19.8966 11.2513 19.6706 11.8633 19.221 12.3325V12.3266Z" fill="black"/>
<path d="M41.7039 1.51749L37.8503 2.6662L37.8433 4.75401H36.1033L36.0927 8.44253L37.8328 8.44838L37.8199 11.9004C37.8199 13.738 38.2847 15.0112 39.2145 15.72C40.1442 16.4289 41.764 16.6463 44.074 16.3723L44.0833 12.8922C43.2168 12.9367 42.5986 12.8976 42.2285 12.7751C41.8585 12.6525 41.6735 12.3348 41.6735 11.8219L41.684 8.45073L44.0962 8.45775L44.1079 4.76924L41.6946 4.76221L41.7039 1.51749Z" fill="black"/>
<path d="M51.8795 4.49413C50.084 4.48788 48.6133 5.06751 47.4673 6.233C46.3213 7.39849 45.7448 8.84657 45.7378 10.5772C45.7323 12.3407 46.308 13.8001 47.4649 14.9555C48.6219 16.1108 50.1441 16.6916 52.0317 16.6978C54.2745 16.7041 55.9704 15.8661 57.1195 14.1838L55.0563 12.9707C54.3888 13.9285 53.39 14.4051 52.0598 14.4004C51.1004 14.4004 50.2889 14.1623 49.6254 13.6861C48.9618 13.21 48.5395 12.532 48.3584 11.6522L57.5914 11.6791C57.6468 11.3339 57.6789 10.9853 57.6874 10.6358C57.6921 8.93478 57.1511 7.48709 56.0645 6.29272C54.9778 5.09834 53.5828 4.49881 51.8795 4.49413ZM48.3385 9.61121C48.5102 8.72987 48.9068 8.0351 49.5282 7.5269C50.1496 7.01871 50.9236 6.76578 51.8502 6.76813C52.627 6.75574 53.3843 7.01175 53.9942 7.49295C54.6031 7.97382 54.9934 8.68655 55.1652 9.63112L48.3385 9.61121Z" fill="black"/>
<path d="M65.3403 10.4953L69.4867 4.84776L66.5639 4.83839L63.8848 8.49646L61.2279 4.82317L58.3274 4.81497L62.441 10.4637L58.0616 16.4133L60.9843 16.4227L63.8965 12.4637L66.7618 16.4391L69.6611 16.4473L65.3403 10.4953Z" fill="black"/>
<path d="M10.2379 4.048L10.2507 0.0339552L4.4229 0.0175601V0.0117067L0.260143 0L0.227356 16.2447L4.37957 16.2564L4.39596 10.6885L10.1032 10.7049L10.1149 6.69202L4.40767 6.67563L4.41587 4.03043L10.2379 4.048Z" fill="black"/>
<path d="M30.0362 16.5585C28.521 16.5585 27.3032 16.192 26.4156 15.4824C25.528 14.7728 25.0713 13.856 25.0748 12.6042L28.7224 12.6148C28.7118 12.7575 28.7401 12.9005 28.8043 13.0285C28.8684 13.1565 28.9659 13.2648 29.0865 13.3419C29.3585 13.5386 29.6878 13.6399 30.0233 13.63C30.339 13.6401 30.6509 13.5587 30.9214 13.3958C31.0622 13.3145 31.1715 13.1881 31.2314 13.037C31.2913 12.8859 31.2985 12.7189 31.2516 12.5632C31.2297 12.5011 31.1937 12.445 31.1462 12.3993C31.0865 12.3372 31.0291 12.2822 30.9741 12.2366C30.9026 12.1826 30.8237 12.1393 30.7399 12.1077C30.6228 12.0597 30.5233 12.0234 30.4437 11.9906C30.364 11.9579 30.2458 11.9298 30.0818 11.8864L29.7024 11.7892C29.6181 11.767 29.4776 11.7342 29.2844 11.6909L28.5057 11.4953C28.3266 11.4508 28.0678 11.3782 27.7399 11.2611C27.4649 11.1772 27.1984 11.0678 26.9437 10.9344C26.7169 10.8041 26.4998 10.6577 26.2938 10.4965C26.0665 10.33 25.8716 10.1232 25.7188 9.88644C25.5738 9.64077 25.4608 9.37749 25.3828 9.10307C25.2871 8.77726 25.2402 8.4391 25.2434 8.09956C25.2434 6.97544 25.672 6.08434 26.5069 5.44968C27.3418 4.81502 28.4975 4.50472 29.9507 4.51291C31.4038 4.52111 32.5596 4.8642 33.3746 5.53282C34.1896 6.20144 34.6052 6.91221 34.6017 8.08785L31.0584 8.07731C31.0151 7.6019 30.3558 7.37473 29.9074 7.36068C29.6385 7.35214 29.3719 7.41303 29.1334 7.5375C29.0418 7.58287 28.9653 7.65378 28.9131 7.74167C28.861 7.82957 28.8354 7.93069 28.8394 8.03281C28.8375 8.11444 28.8568 8.19517 28.8957 8.267C28.9419 8.34809 29.0074 8.41648 29.0865 8.46607C29.1787 8.52995 29.2753 8.58709 29.3757 8.63703C29.5097 8.69981 29.6483 8.75226 29.7903 8.79393C29.9776 8.85248 30.131 8.89815 30.2516 8.93093C30.3722 8.96372 30.5561 9.00588 30.8067 9.06092C31.1579 9.14874 31.4202 9.21665 31.6052 9.26583C31.7903 9.31501 32.049 9.39581 32.3956 9.5129C32.6767 9.60112 32.9487 9.71559 33.2083 9.85482C33.4404 9.99071 33.6652 10.1389 33.8816 10.2986C34.1214 10.4673 34.3261 10.6808 34.4846 10.9274C34.6327 11.1785 34.7506 11.4462 34.8359 11.7248C34.9379 12.053 34.9877 12.3952 34.9835 12.7389C34.9835 13.9614 34.5151 14.918 33.6064 15.5843C32.6978 16.2506 31.5034 16.5632 30.0362 16.5585Z" fill="black"/>
<path d="M88.6963 20.1956C87.1174 19.9321 85.5058 19.9321 83.927 20.1956C83.1964 20.3164 82.5221 20.6631 81.9987 21.1869C81.4753 21.7107 81.1292 22.3853 81.009 23.1159C80.7466 24.6957 80.7466 26.3078 81.009 27.8876C81.1296 28.6179 81.4759 29.2922 81.9992 29.8157C82.5226 30.3393 83.1967 30.6858 83.927 30.8068C85.5073 31.0567 87.1175 31.0519 88.6963 30.7927C89.4266 30.6718 90.1007 30.3252 90.6241 29.8017C91.1474 29.2781 91.4937 28.6039 91.6143 27.8735C91.8696 26.2954 91.8672 24.6863 91.6073 23.1089C91.4856 22.3807 91.1398 21.7087 90.6179 21.1864C90.0961 20.6642 89.4244 20.3178 88.6963 20.1956ZM85.2279 29.1323C85.1285 29.1322 85.0311 29.1047 84.9463 29.0528C84.8615 29.0009 84.7926 28.9267 84.7473 28.8382C84.7019 28.7498 84.6818 28.6506 84.6891 28.5515C84.6964 28.4523 84.7309 28.3571 84.7888 28.2763L86.1366 26.4028L83.9001 26.1873C83.7821 26.1754 83.6701 26.1296 83.5776 26.0554C83.4851 25.9812 83.4161 25.8818 83.3789 25.7692C83.3418 25.6566 83.338 25.5356 83.3682 25.4209C83.3983 25.3062 83.461 25.2027 83.5488 25.1229L87.0277 22.0047C87.1266 21.9135 87.2562 21.8629 87.3907 21.863C87.4901 21.8631 87.5875 21.8906 87.6723 21.9425C87.7571 21.9944 87.8259 22.0686 87.8713 22.1571C87.9167 22.2455 87.9368 22.3447 87.9295 22.4438C87.9221 22.543 87.8877 22.6382 87.8298 22.719L86.482 24.5984L88.7174 24.8126C88.8353 24.8248 88.9473 24.8709 89.0396 24.9452C89.132 25.0196 89.201 25.119 89.2381 25.2317C89.2752 25.3443 89.279 25.4653 89.2489 25.58C89.2188 25.6947 89.1563 25.7983 89.0687 25.8782L85.5944 28.9906C85.4949 29.083 85.3637 29.1337 85.2279 29.1323Z" fill="#FF008C"/>
<path d="M2.32322 26.9039C2.62298 27.9859 3.43446 28.5269 4.75764 28.5269C5.60931 28.5269 6.25334 28.2392 6.68972 27.6639L8.48479 28.699C7.63312 29.9308 6.37902 30.5464 4.72251 30.5456C3.29628 30.5456 2.15148 30.1143 1.28809 29.2517C0.424705 28.3891 -0.00464592 27.3016 3.79087e-05 25.9894C3.79087e-05 24.6896 0.425488 23.6053 1.27638 22.7365C2.12728 21.8676 3.22017 21.4332 4.55506 21.4332C5.8197 21.4332 6.8638 21.8704 7.68737 22.7447C8.51095 23.619 8.92234 24.7006 8.92156 25.9894C8.9196 26.2962 8.8906 26.6022 8.83491 26.9039H2.32322ZM2.28926 25.1779H6.68972C6.56325 24.5917 6.30174 24.1545 5.90518 23.8664C5.51137 23.5818 5.03622 23.4319 4.55038 23.439C3.95163 23.439 3.45671 23.5913 3.06561 23.8957C2.66404 24.2185 2.38914 24.6725 2.28926 25.1779Z" fill="black"/>
<path d="M17.9423 30.3043H15.3662L13.502 27.6814L11.6203 30.3043H9.04416L12.2057 25.9039L9.18467 21.6756H11.7608L13.5043 24.1088L15.2479 21.6756H17.8017L14.7818 25.891L17.9423 30.3043Z" fill="black"/>
<path d="M22.55 30.5456C21.2502 30.5456 20.1659 30.1084 19.2971 29.2341C18.4282 28.3598 17.9938 27.2782 17.9938 25.9894C17.9938 24.7013 18.4282 23.6198 19.2971 22.7447C20.1659 21.8696 21.2502 21.4324 22.55 21.4332C23.3551 21.423 24.1481 21.6306 24.845 22.0339C25.5133 22.4135 26.0586 22.9767 26.4165 23.6568L24.5008 24.7774C24.3297 24.4232 24.0559 24.1286 23.7151 23.932C23.3564 23.7229 22.9475 23.6156 22.5324 23.6217C22.2254 23.6125 21.9198 23.6667 21.6347 23.7809C21.3496 23.8952 21.0912 24.067 20.8755 24.2856C20.6572 24.5102 20.4867 24.7766 20.374 25.0688C20.2613 25.361 20.2088 25.6729 20.2198 25.9859C20.2097 26.2961 20.2627 26.6051 20.3754 26.8943C20.4881 27.1835 20.6582 27.4469 20.8755 27.6685C21.0908 27.8878 21.3491 28.0601 21.6343 28.1746C21.9195 28.2891 22.2253 28.3432 22.5324 28.3336C22.9522 28.3411 23.3664 28.2369 23.7326 28.0315C24.0742 27.8399 24.3482 27.5475 24.5172 27.1943L26.4504 28.2985C26.0718 28.9767 25.5172 29.5403 24.845 29.9297C24.1506 30.3407 23.3569 30.5537 22.55 30.5456Z" fill="black"/>
<path d="M32.423 21.4332C33.3661 21.4332 34.1467 21.7497 34.765 22.3828C35.3832 23.0159 35.6908 23.8903 35.6877 25.0058V30.3044H33.4629V25.2821C33.4629 24.7068 33.3067 24.2665 32.9945 23.9613C32.6822 23.6561 32.2681 23.5038 31.7521 23.5046C31.176 23.5046 30.717 23.6826 30.3715 24.0397C30.0261 24.3969 29.854 24.9308 29.854 25.644V30.3044H27.6292V18.2236H29.854V22.6416C30.3918 21.836 31.2482 21.4332 32.423 21.4332Z" fill="black"/>
<path d="M44.1428 21.6756H46.3676V30.3044H44.1428V29.2856C43.4754 30.1264 42.5386 30.5464 41.3325 30.5456C40.1811 30.5456 39.1943 30.1057 38.3723 29.2259C37.5503 28.3461 37.1389 27.2673 37.1381 25.9894C37.1381 24.7115 37.5495 23.633 38.3723 22.754C39.1951 21.875 40.1818 21.4348 41.3325 21.4332C42.5394 21.4332 43.4761 21.8532 44.1428 22.6931V21.6756ZM40.0351 27.7411C40.2577 27.9664 40.5245 28.1432 40.8187 28.2605C41.1129 28.3777 41.4281 28.433 41.7447 28.4226C42.0622 28.4324 42.3784 28.377 42.6736 28.2598C42.9689 28.1426 43.237 27.9661 43.4613 27.7411C43.9156 27.2868 44.1428 26.7013 44.1428 25.9847C44.1428 25.2681 43.9156 24.6826 43.4613 24.2283C43.2357 24.005 42.9669 23.8301 42.6713 23.7146C42.3757 23.599 42.0596 23.5451 41.7423 23.5561C41.4258 23.5461 41.1107 23.6015 40.8165 23.7187C40.5224 23.836 40.2556 24.0126 40.0327 24.2376C39.5847 24.692 39.3606 25.2775 39.3606 25.9941C39.3606 26.7107 39.5847 27.2931 40.0327 27.7411H40.0351Z" fill="black"/>
<path d="M53.1835 21.4332C54.1273 21.4332 54.9079 21.7497 55.5254 22.3828C56.1429 23.0159 56.4508 23.8903 56.4493 25.0058V30.3044H54.2245V25.2821C54.2245 24.7068 54.0683 24.2665 53.7561 23.9613C53.4438 23.6561 53.0297 23.5038 52.5137 23.5046C51.9384 23.5046 51.4782 23.683 51.1331 24.0397C50.7881 24.3965 50.6156 24.9312 50.6156 25.644V30.3044H48.3908V21.6756H50.6156V22.6416C51.1542 21.836 52.0102 21.4332 53.1835 21.4332Z" fill="black"/>
<path d="M64.9541 21.6756H67.1285V29.8899C67.1285 31.2248 66.6883 32.2431 65.8077 32.9449C64.9271 33.6467 63.8659 33.998 62.6239 33.9987C61.7734 34.017 60.9308 33.8337 60.1649 33.4636C59.4722 33.1209 58.9025 32.5725 58.5337 31.8934L60.4318 30.8055C60.8698 31.6112 61.6235 32.014 62.6929 32.014C63.3955 32.014 63.9478 31.8297 64.3499 31.4613C64.7519 31.0928 64.9533 30.5694 64.9541 29.891V28.9543C64.2983 29.8294 63.378 30.2665 62.193 30.2657C61.6205 30.2787 61.0517 30.1707 60.5238 29.9488C59.996 29.7268 59.5209 29.3959 59.1297 28.9777C58.3349 28.1298 57.8932 27.0107 57.8947 25.8484C57.8962 24.6862 58.3408 23.5683 59.1379 22.7224C59.5275 22.304 60.001 21.9724 60.5274 21.7492C61.0538 21.5261 61.6213 21.4164 62.193 21.4274C63.378 21.4274 64.2983 21.8645 64.9541 22.7388V21.6756ZM60.803 27.5515C61.2574 27.9949 61.8354 28.2166 62.5372 28.2166C62.8563 28.2277 63.1743 28.1745 63.4724 28.0603C63.7706 27.946 64.0427 27.773 64.2726 27.5515C64.7097 27.0969 64.9539 26.4907 64.9539 25.86C64.9539 25.2293 64.7097 24.6232 64.2726 24.1686C63.7959 23.7411 63.1781 23.5046 62.5378 23.5046C61.8975 23.5046 61.2797 23.7411 60.803 24.1686C60.3659 24.6232 60.1217 25.2293 60.1217 25.86C60.1217 26.4907 60.3659 27.0969 60.803 27.5515Z" fill="black"/>
<path d="M71.029 26.9039C71.3272 27.9859 72.1383 28.5269 73.4623 28.5269C74.3132 28.5269 74.9576 28.2392 75.3955 27.6639L77.1894 28.699C76.3385 29.9308 75.0844 30.5464 73.4271 30.5456C72.0009 30.5456 70.8561 30.1143 69.9927 29.2517C69.1293 28.3891 68.7 27.3016 68.7047 25.9894C68.7047 24.6896 69.1305 23.6053 69.9822 22.7365C70.8338 21.8676 71.9267 21.4332 73.2608 21.4332C74.5263 21.4332 75.5704 21.8704 76.3932 22.7447C77.216 23.619 77.6274 24.7006 77.6274 25.9894C77.6254 26.2962 77.5964 26.6022 77.5407 26.9039H71.029ZM70.9939 25.1779H75.3955C75.2675 24.5917 75.0056 24.1545 74.6098 23.8664C74.216 23.5818 73.7408 23.4319 73.255 23.439C72.6562 23.439 72.1617 23.5913 71.7714 23.8957C71.3691 24.218 71.0937 24.6722 70.9939 25.1779Z" fill="black"/>
</svg>
